<?xml version="1.0" encoding="utf-8"?>
<!-- Generator: Adobe Illustrator 28.2.0, SVG Export Plug-In . SVG Version: 6.00 Build 0)  -->
<svg version="1.1" id="Layer_1" xmlns="http://www.w3.org/2000/svg" xmlns:xlink="http://www.w3.org/1999/xlink" x="0px" y="0px"
	 viewBox="0 0 900 900" style="enable-background:new 0 0 900 900;" xml:space="preserve">
<style type="text/css">
	.st0{fill:#FFFFFF;}
	.st1{fill:#007F48;}
</style>
<rect y="-0.1" class="st0" width="900" height="900"/>
<g>
	<path class="st1" d="M359.4,545.1C353,556,344,574,344,574s-45.4-1.5-73.9-2.6c-35.2-0.8-88.1,1.9-88.1,1.9l1.5-9.8
		c6.8-0.8,14.2-4.1,20.2-10.5c5.2-4.9,7.1-11.2,7.5-17.6V354.2c-2.2-12.4-12-15.8-25.5-18l-1.5-5.2c38.6,0,26.2,1.1,44.6,1.1
		c21.8,0,54-1.5,54-1.5c-1.5,4.5-1.5,8.2-1.5,8.2c-13.5,0-31.9,5.2-37.1,17.6c-1.5,5.2-3.4,15.4-3.4,15.4l-0.4,140.6
		c0,16.9-1.5,31.9,11.2,42.4c3.8,1.5,8.2,3.4,12.4,3.8c0,0,26.6,0.8,41.2,0.8c20.6,0,33.8-9.4,47.6-25.5c6.4-6.8,9.4-10.9,12.4-18.4
		l9,1.1C374.4,516.6,365.1,534.2,359.4,545.1z"/>
	<path class="st1" d="M716.1,333.9c-4.5,0.8-11.2-0.8-17.2,1.1c-14.6,5.2-17.6,15-22.9,28.1L594.6,572l-15.8-3.4l-51-119.6
		l-51.4,125.2l-15.8-3.4l-82.1-203.2c-3.8-11.2-4.5-18.8-14.6-26.6c-7.9-6-12.8-5.2-23.2-8.2l-0.8-6h45c21.8,0,48-0.8,48-0.8l3,7.5
		c-9.8,2.2-29.6,3.8-32.6,12c0,2.6-1.1,5.6,0,8.2l74.6,186l42-108l-26.6-64.1c-4.5-10.9-5.2-19.5-14.6-26.6
		c-7.9-6-12.8-5.2-23.2-8.2l-0.8-6.4c0,0,24.8,0.4,45,0.4h40.1h30.4c16.5,0,32.6-1.1,32.6-1.1l4.1,8.2c-4.5,0.8-9.8,1.5-15.8,3.4
		c-14.6,5.2-18.4,12.8-24.4,25.9l-23.6,52.5l50.6,125.2l72.8-189.4c1.9-5.2-3.8-8.6-7.5-12c-6.4-5.2-14.2-4.5-21.8-5.6l-1.1-7.9
		c0,0,24.4,1.1,42,1.1c16.5,0,39.8-1.1,39.8-1.1L716.1,333.9z M539.8,335.1c-9.8,0.8-19.5,1.5-21.8,10.5c-0.8,3.4-1.1,4.9,0,8.2
		l18.4,48.8l22.1-51C564.2,338.4,552.6,336.2,539.8,335.1z"/>
</g>
</svg>
