<?xml version="1.0" encoding="utf-8"?>
<!-- Generator: Adobe Illustrator 28.2.0, SVG Export Plug-In . SVG Version: 6.00 Build 0)  -->
<svg version="1.1" id="Layer_1" xmlns="http://www.w3.org/2000/svg" xmlns:xlink="http://www.w3.org/1999/xlink" x="0px" y="0px"
	 viewBox="0 0 900 900" style="enable-background:new 0 0 900 900;" xml:space="preserve">
<style type="text/css">
	.st0{fill:#007F48;}
</style>
<g>
	<path class="st0" d="M699.5,295.2c-6,1-15-1-23,1.5c-19.5,7-23.5,20-30.5,37.5L537.5,612.8l-21-4.5l-68-159.5l-68.5,167l-21-4.5
		l-109.5-271c-5-15-6-25-19.5-35.5c-10.5-8-17-7-31-11l-1-8h60c29,0,64-1,64-1l4,10c-13,3-39.5,5-43.5,16c0,3.5-1.5,7.5,0,11
		l99.5,248l56-144l-35.5-85.5c-6-14.5-7-26-19.5-35.5c-10.5-8-17-7-31-11l-1-8.5c0,0,33,0.5,60,0.5h53.5H505c22,0,43.5-1.5,43.5-1.5
		l5.5,11c-6,1-13,2-21,4.5c-19.5,7-24.5,17-32.5,34.5l-31.5,70l67.5,167l97-252.5c2.5-7-5-11.5-10-16c-8.5-7-19-6-29-7.5l-1.5-10.5
		c0,0,32.5,1.5,56,1.5c22,0,53-1.5,53-1.5L699.5,295.2z M464.5,296.8c-13,1-26,2-29,14c-1,4.5-1.5,6.5,0,11l24.5,65l29.5-68
		C497,301.2,481.5,298.2,464.5,296.8z"/>
</g>
</svg>
