<?xml version="1.0" encoding="utf-8"?>
<!-- Generator: Adobe Illustrator 28.2.0, SVG Export Plug-In . SVG Version: 6.00 Build 0)  -->
<svg version="1.1" id="Layer_1" xmlns:serif="http://www.serif.com/"
	 xmlns="http://www.w3.org/2000/svg" xmlns:xlink="http://www.w3.org/1999/xlink" x="0px" y="0px" viewBox="0 0 595.3 198.4"
	 style="enable-background:new 0 0 595.3 198.4;" xml:space="preserve">
<style type="text/css">
	.st0{fill:#007F48;}
</style>
<path id="path4" class="st0" d="M98.5,107.2c-1.7,2.6-3.8,5.1-6,7.3c-2.1,2.1-4.4,3.8-7,5.2c-2.8,1.4-5.9,2.1-9,2H44.8
	c-5.3,0-7.9-2.5-7.9-7.3V18.1c0-2.6,0.1-5.2,0.7-7.7C38,8.8,39,7.2,40.5,6.2c1.7-1.1,3.7-1.7,5.8-1.9c3.3-0.4,6.6-0.5,10-0.4h5.4V0
	H0.6v3.9h2.1c2.6,0,5,0.1,7.5,0.5c2,0.2,3.8,1,5.4,2.2c1.5,1.1,2.6,2.7,3.2,4.6c0.7,2.6,1.1,5.2,1,7.9v93.1c0,4.7-1,8-2.8,10.1
	c-1.9,2-5.5,3-10.8,3H0v3.9h92.6l16-30.4h-3.7C102.5,101.6,100.5,104.5,98.5,107.2L98.5,107.2L98.5,107.2z"/>
<path id="path6" class="st0" d="M194.7,17.8c2.7,0.1,5.3,0.5,8,1.1c1.9,0.4,3.4,1.4,4.7,2.7c1.2,1.5,2,3.3,2.3,5.3
	c0.5,2.8,0.7,5.7,0.6,8.6v38.8c0,11-3.2,19.4-9.5,25.3c-6.3,5.9-15.3,8.8-26.8,8.8c-5.4,0.1-10.8-0.7-15.9-2.5
	c-4.2-1.5-8.1-3.8-11.3-6.9c-3.1-3-5.4-6.5-6.8-10.6c-1.5-4.4-2.3-9.1-2.2-13.8V30c0-4.6,0.9-7.8,2.6-9.5c1.7-1.7,5.3-2.6,10.6-2.6
	h0.9v-3.1h-41v3.1c2.2,0,4.4,0.1,6.6,0.5c1.5,0.2,3,0.7,4.2,1.7c1.1,0.9,1.9,2.1,2.2,3.4c0.5,1.9,0.7,3.8,0.6,5.8V77
	c0,6.7,1.2,12.6,3.6,17.5c2.3,4.8,5.7,9.1,9.9,12.5c4.3,3.4,9.4,6.1,14.7,7.5c5.9,1.7,11.9,2.5,18,2.5c6.3,0,12.5-0.9,18.5-2.6
	c5.4-1.6,10.6-4.2,15-7.7c4.3-3.4,7.8-7.9,10.1-13c2.5-5.2,3.7-11.4,3.7-18.4V32c0-4.9,1.1-8.4,3.2-10.8c2.1-2.3,5.9-3.4,11.2-3.6
	v-3.1h-37.4v3.2L194.7,17.8L194.7,17.8L194.7,17.8z"/>
<path id="path8" class="st0" d="M280.3,111c-3.1-0.1-6.3-0.9-9.1-2.1c-2.5-1.1-3.7-3.6-3.7-7.2l4.3-72.9h0.4l40.7,85.2h3.7
	l39.7-85.2h0.4l4.6,72.3c0,3.3-1.1,5.8-3.2,7.4c-2.2,1.6-5.8,2.5-11,2.5v3.1h41V111c-2.5,0-4.9-0.1-7.4-0.4
	c-1.5-0.1-2.8-0.7-3.9-1.9c-1-1.4-1.6-2.8-1.7-4.6c-0.4-2-0.6-4.8-0.9-8.5l-5-71.6c0-1,0-2.1,0.2-3.1c0.2-0.7,0.7-1.5,1.5-2
	c1-0.5,2.1-0.9,3.2-1c1.9-0.3,3.7-0.4,5.5-0.5v-2.8h-23.4l-38.2,80.5l-38.4-80.5h-24v2.8c2.5,0,4.9,0.6,7.2,1.7
	c1.7,1.1,2.6,2.8,2.6,5.4c0,3.8-0.1,7.4-0.4,10.9c-0.2,3.4-0.4,6.7-0.6,9.8c-0.7,12-1.4,21.5-1.7,28.4c-0.4,7-0.7,12.5-1,16.3
	c-0.2,3.8-0.5,6.4-0.6,7.9c-0.1,1.5-0.2,2.5-0.4,3.1c-0.1,1.7-0.5,3.4-1.2,5.1c-0.5,1.2-1.4,2.2-2.5,3c-1.1,0.7-2.5,1.2-3.9,1.5
	c-1.9,0.3-3.8,0.4-5.7,0.4v3h33.1V111L280.3,111z"/>
<path id="path10" class="st0" d="M470.9,80c-1.4-3.1-3.2-5.8-5.4-8.3c-2.6-2.7-5.3-5.2-8.4-7.4c-3.2-2.3-6.9-4.8-10.7-7.2
	c-7.9-4.7-13.9-9-18.2-13c-4.3-3.9-6.4-8.3-6.4-13.1c-0.1-4.2,1.7-8.2,4.9-10.9c3.2-2.7,7.6-4.2,13-4.2c5.5,0,10.8,1.9,15.3,5.1
	c4.7,3.4,8.4,8.3,10.3,13.7h2.7l-2.7-20.3h-2.6c-0.6,1-1.9,1.6-3.1,1.6c-1.2,0-2.5-0.2-3.6-0.6c-1.2-0.4-2.6-0.9-4.2-1.4
	s-3.4-1-5.7-1.4c-2.6-0.5-5.3-0.6-7.9-0.6c-3.6,0-7.3,0.5-10.7,1.5c-3.3,1-6.3,2.5-9.1,4.4c-2.6,2-4.8,4.5-6.4,7.3
	c-1.6,3.1-2.5,6.4-2.3,9.9c0,5.8,2.1,11,6.3,15.8c4.2,4.8,10.6,9.8,19.2,15s15,9.9,19.3,13.9c4.3,3.9,6.4,8.4,6.4,13.2
	c0,2.7-0.6,5.6-1.9,8c-1.2,2.3-2.8,4.3-4.9,5.9c-2.1,1.6-4.4,2.8-7,3.7c-2.7,0.9-5.4,1.2-8.3,1.2c-6.2,0.1-12.2-2-17-5.9
	c-4.9-3.9-8.3-9.5-10-16.7h-3.1l3.3,24.3h2.7c0.6-1.1,1.9-1.9,3.2-1.7c1.1,0.1,2.2,0.4,3.2,0.7c1.6,0.5,3.6,1,5.9,1.5
	c2.5,0.6,4.7,1.1,6.8,1.5c2.1,0.4,4.2,0.5,6.3,0.5c4.1,0,8.1-0.6,12.1-1.9c3.7-1.1,7.3-3,10.3-5.3c3-2.3,5.5-5.2,7.3-8.5
	c2-3.6,2.8-7.5,2.8-11.6C472.7,86.2,472.1,83,470.9,80L470.9,80z"/>
<path id="path12" class="st0" d="M590.1,110.6c-1.4-0.2-2.7-0.7-3.8-1.5c-1.2-0.7-2.2-1.9-3.1-3.1c-1-1.6-1.9-3.3-2.5-5.2
	l-33.4-88.7h-13.9l1.5,3.4l-29.4,80.6c-0.5,1.4-1.1,2.8-1.7,4.4c-0.6,1.5-1.4,3-2.1,4.5c-1,1.7-2.3,3.2-4.1,4.2
	c-1.6,1-4.6,1.5-8.9,1.5v3.1h36.8v-3.1H524c-1.5,0-3.1,0-4.6-0.1c-1.5,0-3-0.3-4.4-0.6c-1.2-0.4-2.5-0.9-3.4-1.7
	c-1-0.9-1.5-2.1-1.4-3.4c0-0.6,0.1-1.4,0.4-2l0.6-2.2l11.4-31h33l10.1,27.3c0.6,1.7,1.2,3.2,1.7,4.6c0.5,1.4,0.7,2.8,0.7,4.2
	c0,2.3-1.4,3.7-3.9,4.2c-3.7,0.6-7.5,0.7-11.2,0.7h-1.5v3h43.7v-3.1C593.5,111.1,591.8,111,590.1,110.6L590.1,110.6L590.1,110.6z
	 M525.3,63l13.6-37.2l14,37.2H525.3L525.3,63z"/>
<g>
	<path class="st0" d="M262.9,152.7c-0.9,0.1-2.2-0.1-3.3,0.2c-2.8,1-3.4,2.9-4.4,5.4l-15.6,40.1l-3-0.6l-9.8-23l-9.9,24l-3-0.6
		l-15.8-39c-0.7-2.2-0.9-3.6-2.8-5.1c-1.5-1.2-2.4-1-4.5-1.6l-0.1-1.2h8.6c4.2,0,9.2-0.1,9.2-0.1l0.6,1.4c-1.9,0.4-5.7,0.7-6.3,2.3
		c0,0.5-0.2,1.1,0,1.6l14.3,35.7l8.1-20.7l-5.1-12.3c-0.9-2.1-1-3.7-2.8-5.1c-1.5-1.2-2.4-1-4.5-1.6l-0.1-1.2c0,0,4.8,0.1,8.6,0.1
		h7.7h5.8c3.2,0,6.3-0.2,6.3-0.2l0.8,1.6c-0.9,0.1-1.9,0.3-3,0.6c-2.8,1-3.5,2.4-4.7,5l-4.5,10.1l9.7,24l14-36.4
		c0.4-1-0.7-1.7-1.4-2.3c-1.2-1-2.7-0.9-4.2-1.1l-0.2-1.5c0,0,4.7,0.2,8.1,0.2c3.2,0,7.6-0.2,7.6-0.2L262.9,152.7z M229.1,152.9
		c-1.9,0.1-3.7,0.3-4.2,2c-0.1,0.6-0.2,0.9,0,1.6l3.5,9.4l4.2-9.8C233.7,153.5,231.5,153.1,229.1,152.9z"/>
	<path class="st0" d="M293.1,198c-4.5-0.1-11.4,0.1-11.4,0.1l0.1-1.4c2.4-0.2,5.7,0.3,6.8-2.2c0.5-1.1,0.7-1.9,0.4-3l-0.8-2.3
		c0,0-2.6-7.2-4-11.2h-14.8l-4.2,13.5c-0.8,2.7-0.4,2.9,0.6,4c1.4,1.5,3.6,1.1,5.5,1.1l0.2,1.6c0,0-5.3-0.3-8.6-0.2
		c-3,0.1-7.6,0.6-7.6,0.6l0.3-1.9c2.2-0.4,4-0.9,5.6-2.7c1.2-1.4,1.9-4.1,1.9-4.1s10.9-33.9,11.1-35.1c0.1-1.3,0.4-2.8,0.2-4.3
		l4.7,0.1l3.5,8.7l12.3,32.9c1.7,4.5,3.5,3.5,6.2,4.4l0.3,1.9C301.6,198.2,296.4,198,293.1,198z M276.4,156.5l-6,17.9h12.7
		L276.4,156.5z"/>
	<path class="st0" d="M336.9,154.5c-1.7,1.1-2.2,2.1-3.1,3.8l-7,13.5l-4.5,8.5l0.1,9.9c0,0,0.1,2.4,0.6,3c1,2.4,2,2.6,4.7,3l0.2,2
		c-3.5,0-3.9-0.3-8-0.3c-3.7,0-8.4,0.5-8.4,0.5l0.3-1.7c1.4-0.1,2.8-0.8,4-2c1-1,1.5-2.2,1.4-3.5l-0.1-10.2c0,0-3.2-5.3-4.6-7.6
		l-10.9-17.7c-0.4-0.6-0.6-0.8-1.1-1.2c-1.9-1.7-6.4-1.4-6.4-1.4l0.4-1.7c0,0,5.8,0.2,9.4,0.2c3.5,0,9-0.1,9-0.1
		c0.4,0.6,0.6,1.7,0.6,1.7s-1.7,0.1-2.9,0.5c-1.4,0.4-2.6,1.3-1.8,2.7l8.9,15.8l3.1,5.8l2.6-5.1l7.6-16c0,0,0.4-1.4,0.1-2.2
		c-0.5-1.6-3.7-2.1-3.7-2.1l0.1-1.1c0,0,4.1,0.1,6.7,0.1c2.8,0,7.3-0.1,7.3-0.1v1.7C341.6,153.1,338.5,153.4,336.9,154.5z"/>
	<path class="st0" d="M377.5,162c-0.5-2.3,0.1-4.7-1.9-6.3c-1.3-1.2-3.5-1.4-4.2-1.5h-13.9v19.3c0,0,9.3,0.1,12.8-0.1
		c1.4-0.1,2.7-0.4,3.7-1.4c1.4-1.4,1.1-3,1.2-4.6h1.2v14l-1.1-0.1c0,0,0-2-0.4-3c-0.5-1.2-1.2-1.7-2.2-2.4c-1-0.6-2.1-0.6-3-0.7
		h-12.2v16.1c0,0.6,0.1,1.4,0.5,2.1c1,2.2,2.9,3.3,5.4,3.3c0,0,0.1,0.8,0.3,1.7c0,0-4.3-0.3-8.4-0.3c-3.7,0-9.4,0.4-9.4,0.4l0.3-1.7
		c2.6-0.6,5.6-1.2,5.6-5.3v-32.8c0,0-0.1-2.1-0.6-3.1c-1-1.9-3.1-2.1-5-2.8l-0.1-1.2h15.6h16.5l0.4,10.5H377.5z"/>
	<path class="st0" d="M393.1,198c-3.7,0-9.4,0.6-9.4,0.6l0.3-1.9c1.4-0.1,2.8-0.8,4-2c1-1,1.4-2.2,1.4-3.5v-35.1
		c-0.4-2.4-2.3-3-5-3.5l-0.3-1c4,0,5.8,0.1,8.2,0.1c2.1,0,4.6-0.1,8.1-0.1l-0.3,1c-2.6,0.4-4.5,1.1-5,3.5l0.1,34.2
		c0,0,0.1,2.4,0.6,3c1,2.4,2,2.6,4.7,3l0.2,2C397.5,198.3,397.3,198,393.1,198z"/>
	<path class="st0" d="M458.5,153.3c-2.5,0-6,0.9-7.1,3.3c-0.4,1-0.4,3-0.4,3v38.7l-0.5,0.1c0,0-0.7-0.3-1.3-0.9l-7.5-8.4l-8-9.1
		l-17.2-20.3c-0.4-0.5-2.2-3.5-2.2-3.5v33.9c0,0,0.1,2,0.4,3c0.9,2.3,4.6,3.2,7.1,3.2c0,0,0,0.8,0.4,1.7c0,0-3.9-0.3-8-0.3
		c-3.6,0-8.9,0.8-8.9,0.8l0.3-1.9c1.4-0.1,2.8-0.8,4-2c1-0.9,1.4-2,1.4-3.4V162v-5.4c-0.4-2.3-3-3-5.5-3.4l-0.2-1.3
		c2.4,0,6.3-0.2,8.9-0.2h2.7c0.6,0.5,1.7,1.1,5.3,5.5l14.4,17.3l7.4,9.4l4.2,4.8l-0.1-30.1c-0.1-1.3-0.4-2.3-1.3-3.4
		c-1.2-1.2-2.7-1.9-4-2l-0.3-1.8c0,0,4.8,0.5,8.4,0.5c4.1,0,8-0.3,8-0.3C458.5,152.6,458.5,153.3,458.5,153.3z"/>
	<path class="st0" d="M504.5,186.8c-1.9,2.9-3.3,4.2-6.1,6.3c-4,3-6.9,4.3-12,4.8l-23.8-0.1l0.1-1.6c2.1-0.1,3.9-0.7,5-2.5
		c0.8-1.3,0.8-3.8,0.8-3.8V157c0-1-0.4-1.5-1.1-2.3c-1.4-1.7-3.5-1.5-5.3-1.9l0.3-1.7c2.2,0.2,4.7,0,7.6,0c7.3,0,12.6-0.4,18.6,0
		c4.8,0.4,8.1,1.8,11.9,4.9c4.6,3.7,6.6,7.2,7.8,13C509.6,175.9,508.4,180.9,504.5,186.8z M491.2,154.5c-4.8-1.7-9.9-1.3-15.3-1.4
		h-1.7l0.1,38.3c0,2.1,1.4,3.7,3.2,4.3c1.8,0.6,3.4,0.4,5.1,0.4c3.5-0.1,6.9-0.8,10.7-3c6.6-4,8.6-9.4,9.4-17.4
		C503.7,166.1,497.7,156.9,491.2,154.5z"/>
	<path class="st0" d="M544,197.9l-14.5-0.1l-17.6,0.1v-1.2c1.2-0.1,3.1-0.4,4.4-1.5c1.6-1.4,1.6-3.3,1.9-5.1v-31.5
		c0,0-0.1-2.1-0.6-3.1c-1-1.9-3.1-2.1-5-2.8l-0.1-1.2h15.6h14.2l0.4,10.5h-1.2c-0.5-2.3,0.1-4.7-1.9-6.3c-1.3-1.2-3.5-1.4-4.2-1.5
		h-11.6v19.3c0,0,6.8,0.1,10.3-0.1c1.4-0.1,2.7-0.4,3.7-1.4c1.4-1.4,1.1-3,1.2-4.6h1.2v14h-1.1c0,0,0-2.1-0.4-3.1
		c-0.5-1.2-1.2-1.7-2.2-2.4c-1-0.6-2.1-0.6-3-0.7h-9.7v16.1c0,0.6,0.1,1.4,0.5,2.1c0.4,0.6,0.9,1.3,1.5,1.7
		c4.6,1.1,9.9,1.2,14.6-0.4c2.9-1.4,3-5,4.3-7.3h0.8L544,197.9z"/>
	<path class="st0" d="M588.4,198.3c-4.2-0.6-8.9-5.6-12-10.9c-1.2-2-2.2-3.8-3.2-5.5c-1.2-1.8-1.5-2.7-3.5-4
		c-1.6-0.7-2.5-1.3-4.2-1.2c0,0-2.4-0.1-3.6,0.1v2v11.4c0,0,0.3,2,0.6,3c0.9,2.4,4.6,3.3,7.1,3.3c0,0,0,0.7,0.4,1.6
		c0,0-6.3-0.3-10.4-0.3c-3.7,0-8.9,0.6-8.9,0.6l0.3-1.8c1.4-0.1,2.8-0.8,4-2c1-1,1.4-2.2,1.4-3.5v-35.1c-0.4-2.4-2.3-2.9-5-3.3
		l-0.3-1.2c7.5,0,16.4-1.2,22.5,0.4c4,1.1,7,1.9,9,6.6c1,2.3,1.2,3.8,0.9,6.4c-0.2,2.2-0.7,3.7-1.7,5.2c-0.9,1.3-1.7,2.9-3.5,4
		c-0.9,0.6-3.3,1.9-3.3,1.9c1.7,3,4.7,6,6.8,9.1c2.2,3.1,3.2,4.6,5.4,7.5c1.9,2.1,3.9,4,6.6,4l0.7,1.4
		C592.9,198.4,590.7,198.7,588.4,198.3z M571.6,153.9c-3-1.7-7.2-1.7-9.7-1.2l-0.1,22c0.5,0.1,2.1,0.2,2.1,0.2
		c3.4,0.3,7.9-0.5,10.2-3c3.5-3.5,4.5-8.3,2-13.2C574.9,156.6,573.7,155.2,571.6,153.9z"/>
</g>
</svg>
